<svg width="150" height="151" viewBox="0 0 150 151" fill="none" xmlns="http://www.w3.org/2000/svg">
<path d="M77.1537 64.7576C77.0875 64.8128 77.0948 64.8551 77.1758 64.8846L82.2102 66.7117C82.2875 66.7412 82.3537 66.7265 82.4089 66.6676C97.3356 51.2938 84.3797 25.967 63.5353 28.5726C58.3795 29.2166 54.0277 31.3548 50.48 34.9871C37.9215 47.8547 44.2588 69.2179 61.8462 72.9275C62.6227 73.0894 64.5474 73.2495 67.6203 73.4078C85.6052 74.3352 97.435 90.5425 93.1899 108.218C92.8109 109.797 91.8246 110.434 90.2311 110.128L89.6239 110.012C89.3779 109.965 89.1442 109.868 88.9373 109.727C88.7303 109.586 88.5544 109.404 88.4204 109.193C88.2864 108.981 88.1972 108.744 88.1583 108.497C88.1194 108.25 88.1316 107.997 88.1941 107.755C91.6553 94.4232 84.2858 81.4894 70.8496 78.8452C70.1062 78.7016 68.314 78.5765 65.4729 78.4698C55.5918 78.0944 46.5 72.4086 41.9955 63.7198C35.2166 50.6424 39.7211 34.9871 52.1913 27.3305C66.5163 18.5368 85.3402 25.0507 91.7823 40.3969C95.79 49.9303 93.9186 61.3461 86.9687 69.1517C86.8987 69.229 86.9061 69.2989 86.9907 69.3614L90.7997 72.1988C90.8696 72.2467 90.9303 72.2393 90.9818 72.1768C97.0099 64.8238 99.5676 56.641 98.6549 47.6284C97.1534 32.8066 85.6659 20.9105 70.949 18.7852C52.7157 16.1466 35.8791 29.3841 34.0519 47.7222C32.3517 64.7797 44.4299 80.5012 61.4101 83.0295C64.4351 83.4822 67.9957 83.2117 70.7558 83.9017C85.158 87.5009 89.2375 106.794 76.8556 115.643C76.4468 115.935 75.9395 116.054 75.4435 115.974C74.9476 115.895 74.503 115.623 74.2059 115.218L73.8968 114.798C72.9694 113.529 73.1055 112.386 74.3053 111.37C82.0888 104.785 80.2395 92.4911 70.6067 89.0852C68.0398 88.1743 65.4509 88.5994 62.7625 88.3068C46.1356 86.5017 32.5338 74.3076 29.4977 57.8849C25.0429 33.7892 44.3636 11.8519 68.8513 13.519C77.8014 14.1262 85.6475 17.5929 92.3895 23.919C92.5293 24.0478 92.6692 24.0478 92.809 23.919C100.088 17.1954 108.663 13.7471 118.533 13.5742C121.652 13.519 122.028 17.8965 119.383 18.5865C119.041 18.6748 118.333 18.7227 117.258 18.73C109.497 18.7908 101.962 22.3679 96.1708 27.6397C96.0052 27.7906 95.9887 27.9543 96.1212 28.131C106.803 42.3179 106.549 61.876 94.6583 75.511C94.5258 75.6618 94.5258 75.8146 94.6583 75.9691C101.489 83.8557 104.635 93.0634 104.098 103.592C104.017 105.237 103.154 106.06 101.509 106.06H100.88C100.624 106.06 100.372 106.007 100.138 105.906C99.9041 105.804 99.6934 105.656 99.519 105.471C99.3447 105.285 99.2104 105.065 99.1244 104.826C99.0384 104.586 99.0027 104.332 99.0193 104.078C99.7185 93.3505 96.4045 84.474 89.0774 77.4486C83.2039 71.8179 76.1233 68.8205 67.8356 68.4561C64.9393 68.3273 63.0606 68.158 62.1994 67.9483C52.3017 65.5359 46.5 55.169 49.7624 45.3761C55.6304 27.7777 81.7024 30.3832 83.7117 48.9919C84.3852 55.2039 82.1992 60.4592 77.1537 64.7576ZM78.8374 50.9295C78.8374 47.6207 77.523 44.4475 75.1833 42.1078C72.8437 39.7682 69.6704 38.4538 66.3617 38.4538C63.0529 38.4538 59.8797 39.7682 57.54 42.1078C55.2004 44.4475 53.886 47.6207 53.886 50.9295C53.886 52.5678 54.2087 54.1901 54.8357 55.7037C55.4626 57.2173 56.3816 58.5926 57.54 59.7511C59.8797 62.0907 63.0529 63.4051 66.3617 63.4051C68 63.4051 69.6223 63.0824 71.1359 62.4555C72.6495 61.8285 74.0249 60.9096 75.1833 59.7511C76.3418 58.5926 77.2608 57.2173 77.8877 55.7037C78.5147 54.1901 78.8374 52.5678 78.8374 50.9295Z" fill="white"/>
<path d="M101.073 29.3068C105.716 25.4868 111.44 23.77 117.584 23.6265C119.203 23.586 120.052 24.3754 120.129 25.9947L120.157 26.6074C120.168 26.8624 120.128 27.1172 120.039 27.3562C119.949 27.5953 119.812 27.8136 119.635 27.9979C119.459 28.1823 119.247 28.3288 119.012 28.4285C118.777 28.5282 118.524 28.5791 118.269 28.5781C113.146 28.556 108.52 30.0318 104.391 33.0053C104.121 33.1994 103.814 33.3366 103.49 33.4087C103.165 33.4809 102.83 33.4864 102.503 33.425C102.176 33.3636 101.865 33.2365 101.589 33.0514C101.313 32.8664 101.077 32.6272 100.896 32.3484L100.659 31.9786C100.388 31.5611 100.28 31.0579 100.356 30.565C100.432 30.0722 100.688 29.6243 101.073 29.3068Z" fill="white"/>
<path d="M116.496 39.2159C112.814 39.4035 110.833 40.4082 107.675 42.4397C107.469 42.5716 107.239 42.6609 106.998 42.7023C106.757 42.7437 106.51 42.7364 106.272 42.6808C106.034 42.6252 105.81 42.5224 105.613 42.3786C105.416 42.2348 105.25 42.0528 105.125 41.8435L104.843 41.3798C104.052 40.0586 104.264 38.9233 105.478 37.9738C108.768 35.4051 112.527 34.1851 116.756 34.3139C117.267 34.3299 117.753 34.5381 118.118 34.8971C118.483 35.256 118.701 35.7395 118.727 36.2515L118.749 36.7262C118.826 38.305 118.075 39.1349 116.496 39.2159Z" fill="white"/>
<path d="M58.6064 117.056C54.2344 114.804 51.2903 111.192 49.7741 106.22C49.6233 105.725 49.6708 105.191 49.9065 104.73C50.1423 104.268 50.5479 103.916 51.0382 103.747L51.5405 103.576C53.0641 103.053 54.0909 103.552 54.6208 105.072C55.9346 108.851 58.5825 111.607 62.5644 113.341C65.1092 114.45 63.7844 118.337 60.7151 117.956C60.3913 117.915 59.6884 117.615 58.6064 117.056Z" fill="white"/>
<path d="M33.2567 118.626C31.3945 115.141 30.1175 111.445 29.4256 107.536C29.3348 107.025 29.4446 106.498 29.7323 106.064C30.02 105.63 30.4635 105.324 30.9713 105.207L31.5067 105.085C31.8268 105.012 32.1584 105.004 32.4816 105.061C32.8049 105.119 33.1133 105.241 33.3884 105.42C33.6635 105.599 33.8997 105.832 34.0828 106.105C34.266 106.377 34.3924 106.684 34.4545 107.006C35.1059 110.425 36.2689 113.66 37.9433 116.711C38.0693 116.941 38.1475 117.194 38.1731 117.455C38.1987 117.716 38.1713 117.98 38.0924 118.23C38.0136 118.481 37.8849 118.713 37.7142 118.913C37.5434 119.113 37.3341 119.276 37.0987 119.394L36.5357 119.675C35.1041 120.385 34.0111 120.036 33.2567 118.626Z" fill="white"/>
<path d="M43.4947 113.411C45.1227 113.411 46.4425 112.091 46.4425 110.463C46.4425 108.835 45.1227 107.516 43.4947 107.516C41.8666 107.516 40.5469 108.835 40.5469 110.463C40.5469 112.091 41.8666 113.411 43.4947 113.411Z" fill="white"/>
<path d="M95.6483 115.53C96.2261 114.245 96.8462 112.816 97.5086 111.241C97.7506 110.664 98.2054 110.202 98.7782 109.952C99.351 109.702 99.9977 109.683 100.583 109.899L101.08 110.081C101.551 110.254 101.937 110.601 102.159 111.05C102.381 111.5 102.422 112.016 102.273 112.494C101.062 116.391 99.575 119.49 97.8123 121.79C96.6641 123.286 93.9647 122.386 93.5341 120.619C93.1311 118.947 94.9528 117.07 95.6483 115.53Z" fill="white"/>
<path d="M82.086 123.687C81.5622 124.04 80.9206 124.174 80.2992 124.059C79.6777 123.945 79.1261 123.591 78.7628 123.074L78.3433 122.478C78.2024 122.277 78.1029 122.051 78.0505 121.811C77.9981 121.572 77.9939 121.324 78.038 121.082C78.0822 120.84 78.1738 120.609 78.3077 120.403C78.4416 120.196 78.615 120.018 78.818 119.878C81.1549 118.281 83.1624 116.354 84.8405 114.098C85.241 113.56 85.8371 113.2 86.5009 113.097C87.1647 112.994 87.843 113.155 88.39 113.546L88.7654 113.822C89.193 114.128 89.4834 114.59 89.5742 115.108C89.665 115.627 89.5491 116.16 89.2512 116.593C87.3044 119.412 84.916 121.777 82.086 123.687Z" fill="white"/>
<path d="M68.8067 118.363C70.1756 118.363 71.2853 117.254 71.2853 115.885C71.2853 114.516 70.1756 113.406 68.8067 113.406C67.4378 113.406 66.3281 114.516 66.3281 115.885C66.3281 117.254 67.4378 118.363 68.8067 118.363Z" fill="white"/>
<path d="M55.3221 125.998C52.1756 124.588 49.4026 122.654 47.0031 120.196C46.5507 119.734 46.2996 119.112 46.3048 118.465C46.3099 117.819 46.571 117.2 47.0307 116.746L47.4944 116.288C47.6758 116.108 47.8913 115.966 48.1283 115.87C48.3652 115.774 48.6188 115.727 48.8743 115.731C49.1298 115.734 49.382 115.789 49.6162 115.891C49.8503 115.993 50.0617 116.141 50.238 116.326C52.159 118.336 54.3653 119.942 56.8567 121.145C57.4495 121.433 57.9091 121.937 58.1403 122.555C58.3715 123.172 58.3566 123.855 58.0988 124.463L57.8724 124.999C57.7721 125.233 57.626 125.446 57.4429 125.624C57.2597 125.802 57.043 125.941 56.8055 126.034C56.568 126.127 56.3145 126.172 56.0598 126.166C55.8051 126.159 55.5543 126.102 55.3221 125.998Z" fill="white"/>
<path d="M61.654 126.153L61.6485 125.69C61.6471 125.351 61.7165 125.016 61.852 124.705C61.9876 124.395 62.1865 124.117 62.4358 123.887C62.6852 123.658 62.9796 123.484 63.3003 123.375C63.621 123.266 63.9608 123.225 64.2982 123.255C67.1724 123.509 70.0171 123.299 72.8324 122.626C73.0725 122.568 73.3219 122.559 73.5657 122.599C73.8096 122.64 74.0428 122.729 74.2515 122.862C74.4602 122.995 74.64 123.169 74.7803 123.373C74.9206 123.577 75.0185 123.807 75.0681 124.05L75.2061 124.735C75.3303 125.348 75.2141 125.986 74.8814 126.517C74.5487 127.048 74.0248 127.431 73.4176 127.589C70.1753 128.42 66.8835 128.645 63.5419 128.262C63.0236 128.203 62.5452 127.955 62.1972 127.566C61.8493 127.178 61.656 126.675 61.654 126.153Z" fill="white"/>
<path d="M52.8091 132.583L52.5883 133.124C52.4647 133.43 52.2785 133.707 52.0416 133.938C51.8047 134.168 51.5222 134.347 51.2122 134.462C50.9022 134.577 50.5714 134.627 50.2409 134.607C49.9104 134.588 49.5875 134.5 49.2927 134.349C45.4985 132.406 42.133 129.881 39.1962 126.775C39.0218 126.592 38.8857 126.375 38.7959 126.138C38.706 125.901 38.6643 125.648 38.673 125.395C38.6817 125.142 38.7408 124.893 38.8467 124.662C38.9527 124.432 39.1034 124.225 39.2901 124.054L39.7814 123.601C40.2571 123.163 40.8855 122.928 41.5322 122.946C42.1789 122.965 42.7927 123.236 43.2426 123.701C45.7377 126.273 48.5953 128.36 51.8154 129.961C52.28 130.192 52.6401 130.59 52.8242 131.076C53.0084 131.562 53.003 132.1 52.8091 132.583Z" fill="white"/>
<path d="M81.9518 129.582C84.55 128.147 86.9458 126.417 89.1391 124.393C89.3246 124.222 89.5428 124.09 89.7806 124.006C90.0184 123.921 90.2709 123.886 90.5227 123.902C90.7745 123.918 91.0205 123.985 91.2457 124.099C91.4709 124.213 91.6707 124.371 91.833 124.564L92.2801 125.089C92.692 125.576 92.8995 126.204 92.8594 126.84C92.8193 127.477 92.5346 128.074 92.0649 128.506C89.6948 130.699 87.0783 132.546 84.2151 134.048C83.7649 134.284 83.2451 134.351 82.7498 134.236C82.2546 134.122 81.8167 133.834 81.5157 133.424L81.2011 132.988C81.0054 132.722 80.8687 132.417 80.8003 132.094C80.7319 131.771 80.7333 131.437 80.8043 131.115C80.8754 130.792 81.0146 130.489 81.2125 130.224C81.4104 129.96 81.6624 129.741 81.9518 129.582Z" fill="white"/>
<path d="M57.5355 137.52C59.13 137.52 60.4226 136.228 60.4226 134.633C60.4226 133.039 59.13 131.746 57.5355 131.746C55.941 131.746 54.6484 133.039 54.6484 134.633C54.6484 136.228 55.941 137.52 57.5355 137.52Z" fill="white"/>
<path d="M75.7667 137.314C72.6165 138.131 69.4075 138.499 66.1395 138.418C65.6232 138.405 65.1314 138.195 64.7657 137.83C64.4 137.465 64.1883 136.974 64.1743 136.458L64.1577 135.917C64.1173 134.298 64.9048 133.464 66.5204 133.416C69.4829 133.332 72.416 132.969 75.3196 132.329C75.5573 132.276 75.8032 132.271 76.0428 132.315C76.2823 132.359 76.5106 132.45 76.7141 132.584C76.9175 132.718 77.0919 132.892 77.2269 133.094C77.362 133.297 77.4549 133.525 77.5001 133.764L77.6215 134.388C77.9123 135.941 77.294 136.916 75.7667 137.314Z" fill="white"/>
</svg>
