<svg width="81" height="101" viewBox="0 0 81 101" fill="none" xmlns="http://www.w3.org/2000/svg">
<path d="M79.3292 49.2097C79.3709 49.2097 79.4126 49.2097 79.496 49.2097C80.0381 49.2097 80.4968 48.8615 80.6636 48.3393C80.8721 47.7735 80.6219 47.1207 80.1215 46.7725L60.6051 34.543C60.0213 34.1513 59.229 34.3689 58.8953 34.9782C58.52 35.5875 58.7285 36.4144 59.3124 36.7626L73.9914 45.9456C66.4851 45.2493 57.686 44.8576 48.8452 44.6835L52.4733 35.3699C52.515 35.2829 55.4758 27.4491 58.0613 19.4847C63.1072 3.77349 62.1064 1.46685 60.7719 0.509385C60.2715 0.161215 59.646 0.0741724 59.0621 0.291779C58.1447 0.639949 56.3098 1.33629 51.3473 15.6983C48.9703 22.5312 47.0104 29.3205 47.0104 29.4075C46.9687 29.5381 45.3423 35.8922 43.2572 44.5965C21.9476 44.3353 2.09765 45.1187 1.76403 45.1187C1.05511 45.1622 0.554688 45.7715 0.554688 46.4679C0.596389 47.2077 1.13851 47.73 1.84744 47.73C2.18106 47.73 21.6557 46.9466 42.6317 47.2077C41.5057 52.0821 40.2547 57.5223 39.087 62.9624L25.3255 98.3888C25.0753 99.0416 25.3672 99.825 26.0344 100.086C26.2012 100.13 26.368 100.173 26.4931 100.173C26.9935 100.173 27.4523 99.8685 27.6608 99.3463L36.3347 77.0198C35.8343 79.9358 35.3756 82.7211 35.0837 85.1583C35.0003 85.8546 35.459 86.551 36.1679 86.638C36.8351 86.7251 37.5024 86.2463 37.5858 85.5065C38.3781 79.457 39.8794 71.6232 41.5474 63.7458L47.9695 47.2948C59.2706 47.5559 70.6969 48.1217 79.3292 49.2097ZM49.3457 30.1909C52.6401 18.8318 57.1439 6.12363 59.3541 3.33827C59.3958 4.77447 58.937 8.7349 55.4341 19.5717C52.9737 27.1879 50.1797 34.4125 50.1797 34.456L46.1763 44.6835C46.0512 44.6835 45.9261 44.6835 45.801 44.6835C47.761 36.3709 49.3457 30.365 49.3457 30.1909Z" fill="white"/>
</svg>
